<?xml version="1.0" encoding="UTF-8" standalone="no"?>
<!-- Created with Inkscape (http://www.inkscape.org/) -->

<svg
   xmlns:dc="http://purl.org/dc/elements/1.1/"
   xmlns:cc="http://creativecommons.org/ns#"
   xmlns:rdf="http://www.w3.org/1999/02/22-rdf-syntax-ns#"
   xmlns:svg="http://www.w3.org/2000/svg"
   xmlns="http://www.w3.org/2000/svg"
   xmlns:sodipodi="http://sodipodi.sourceforge.net/DTD/sodipodi-0.dtd"
   xmlns:inkscape="http://www.inkscape.org/namespaces/inkscape"
   width="141.73228"
   height="182.2822"
   id="svg2"
   version="1.1"
   inkscape:version="0.48.0 r9654"
   sodipodi:docname="frame4x5.svg"
   inkscape:export-filename="Q:\py\photomagick\data\frame4x5.png"
   inkscape:export-xdpi="3413"
   inkscape:export-ydpi="3413">
  <defs
     id="defs4" />
  <sodipodi:namedview
     id="base"
     pagecolor="#ffffff"
     bordercolor="#666666"
     borderopacity="1.0"
     inkscape:pageopacity="0.0"
     inkscape:pageshadow="2"
     inkscape:zoom="2.8"
     inkscape:cx="9.3713106"
     inkscape:cy="99.383673"
     inkscape:document-units="px"
     inkscape:current-layer="layer1"
     showgrid="false"
     showguides="true"
     inkscape:guide-bbox="true"
     inkscape:window-width="1680"
     inkscape:window-height="1031"
     inkscape:window-x="-4"
     inkscape:window-y="-4"
     inkscape:window-maximized="1"
     fit-margin-top="0"
     fit-margin-left="0"
     fit-margin-right="0"
     fit-margin-bottom="0" />
  <metadata
     id="metadata7">
    <rdf:RDF>
      <cc:Work
         rdf:about="">
        <dc:format>image/svg+xml</dc:format>
        <dc:type
           rdf:resource="http://purl.org/dc/dcmitype/StillImage" />
        <dc:title></dc:title>
      </cc:Work>
    </rdf:RDF>
  </metadata>
  <g
     inkscape:label="Layer 1"
     inkscape:groupmode="layer"
     id="layer1"
     transform="translate(-3.079975,-5.2912665)">
    <g
       id="g3145"
       transform="matrix(0.8001908,0,0,0.8001908,1.2457889,6.5633538)">
      <path
         sodipodi:nodetypes="ccccccssssccccscscccscsscsccscssssscc"
         style="fill:#010100"
         d="m 4.824465,226.14058 -2.532279,-0.0441 0,-113.82171 0,-113.8217 12.645139,-0.0214 12.645146,-0.0214 0.903424,0.5059 c 1.766332,0.9891 4.398096,2.00066 6.5571,2.52032 3.468632,0.83486 7.161733,0.91137 10.34014,0.21422 2.184183,-0.47908 4.838526,-1.55304 6.766367,-2.7377 l 0.817428,-0.5023 63.16577,0.0212 63.16579,0.0212 0.0515,2.82761 c 0.0283,1.55518 0.0568,52.75786 0.0633,113.78372 0.009,86.19981 -0.0108,110.97871 -0.0895,111.0574 -0.0787,0.0787 -19.28867,0.097 -86.034177,0.0821 -47.263089,-0.0106 -87.072414,-0.0391 -88.465168,-0.0633 z m 168.259085,-6.27707 c 0.0692,-0.0834 0.10099,-25.39232 0.1197,-95.31566 0.0233,-87.19375 0.037,-95.28819 0.16223,-96.22541 0.26132,-1.95537 0.53083,-3.08557 0.91571,-3.83998 0.16819,-0.32967 0.61321,-0.74973 0.79427,-0.74973 0.0611,0 0.13417,-0.0601 0.16235,-0.13352 0.0282,-0.0734 0.0512,-3.38933 0.0512,-7.36866 0,-5.51479 -0.0241,-7.25922 -0.1013,-7.33643 -0.14777,-0.14777 -168.637055,-0.14777 -168.784831,0 -0.07721,0.0772 -0.101291,1.82164 -0.101291,7.33643 0,3.97933 0.02305,7.29523 0.05124,7.36866 0.02818,0.0734 0.101232,0.13352 0.162345,0.13352 0.181057,0 0.62608,0.42006 0.794274,0.74973 0.384881,0.75441 0.654392,1.88461 0.915706,3.83998 0.125255,0.93722 0.138896,9.03166 0.162235,96.22541 0.01871,69.92334 0.05049,95.23227 0.119701,95.31566 0.140845,0.16971 164.435571,0.16971 164.576421,0 z"
         id="path2998"
         inkscape:connector-curvature="0" />
      <text
         transform="scale(0.94442466,1.0588457)"
         sodipodi:linespacing="125%"
         id="text3032"
         y="5.0135617"
         x="86.468552"
         style="font-size:4.33287239px;font-style:normal;font-variant:normal;font-weight:bold;font-stretch:normal;text-align:start;line-height:125%;letter-spacing:0px;word-spacing:0px;writing-mode:lr-tb;text-anchor:start;fill:#ffffff;fill-opacity:1;stroke:none;font-family:Arial;-inkscape-font-specification:Arial Bold"
         xml:space="preserve"><tspan
           y="5.0135617"
           x="86.468552"
           id="tspan3036"
           sodipodi:role="line">FUJIFILM Velvia</tspan></text>
      <text
         transform="scale(0.94442466,1.0588457)"
         sodipodi:linespacing="125%"
         id="text3032-1"
         y="5.0135617"
         x="133.13927"
         style="font-size:4.33287239px;font-style:normal;font-variant:normal;font-weight:bold;font-stretch:normal;text-align:start;line-height:125%;letter-spacing:0px;word-spacing:0px;writing-mode:lr-tb;text-anchor:start;fill:#ffffff;fill-opacity:1;stroke:none;font-family:Arial;-inkscape-font-specification:Arial Bold"
         xml:space="preserve"><tspan
           y="5.0135617"
           x="133.13927"
           id="tspan3036-7"
           sodipodi:role="line">PVP-501</tspan></text>
      <text
         transform="matrix(0,-0.94442466,1.0588457,0,0,0)"
         sodipodi:linespacing="125%"
         id="text3032-4"
         y="6.3030105"
         x="-182.09033"
         style="font-size:3.2409029px;font-style:normal;font-variant:normal;font-weight:bold;font-stretch:normal;text-align:start;line-height:125%;letter-spacing:0px;word-spacing:0px;writing-mode:lr-tb;text-anchor:start;fill:#ffffff;fill-opacity:1;stroke:none;font-family:Arial;-inkscape-font-specification:Arial Bold"
         xml:space="preserve"><tspan
           y="6.3030105"
           x="-182.09033"
           id="tspan3036-0"
           sodipodi:role="line">FUJIFILM Velvia</tspan></text>
      <text
         transform="matrix(0,-0.94442466,1.0588457,0,0,0)"
         sodipodi:linespacing="125%"
         id="text3032-1-9"
         y="6.3077579"
         x="-125.7182"
         style="font-size:3.2409029px;font-style:normal;font-variant:normal;font-weight:bold;font-stretch:normal;text-align:start;line-height:125%;letter-spacing:0px;word-spacing:0px;writing-mode:lr-tb;text-anchor:start;fill:#ffffff;fill-opacity:1;stroke:none;font-family:Arial;-inkscape-font-specification:Arial Bold"
         xml:space="preserve"><tspan
           y="6.3077579"
           x="-125.7182"
           id="tspan3036-7-4"
           sodipodi:role="line">PVP-501</tspan></text>
      <text
         transform="matrix(0,-0.94442466,1.0588457,0,0,0)"
         sodipodi:linespacing="125%"
         id="text3032-1-9-8"
         y="6.322"
         x="-88.769882"
         style="font-size:3.2409029px;font-style:normal;font-variant:normal;font-weight:bold;font-stretch:normal;text-align:start;line-height:125%;letter-spacing:0px;word-spacing:0px;writing-mode:lr-tb;text-anchor:start;fill:#ffffff;fill-opacity:1;stroke:none;font-family:Arial;-inkscape-font-specification:Arial Bold"
         xml:space="preserve"><tspan
           y="6.322"
           x="-88.769882"
           id="tspan3036-7-4-8"
           sodipodi:role="line">40382    CK EFFI</tspan></text>
    </g>
  </g>
</svg>
